<svg width="61" height="61" viewBox="0 0 61 61" fill="none" xmlns="http://www.w3.org/2000/svg">
<circle cx="30.5" cy="30.5" r="29" stroke="#86BE3F" stroke-width="3"/>
<path d="M44.7964 32.6196C44.4887 32.6196 44.2388 32.3761 44.2388 32.0754C44.2388 31.7748 44.4884 31.5312 44.7964 31.5312H48C47.8611 27.2302 46.0872 23.3258 43.2635 20.391L41.0034 22.5965C40.8943 22.703 40.7519 22.7558 40.609 22.7558C40.4661 22.7558 40.3237 22.703 40.2146 22.5965C39.9968 22.3844 39.9968 22.0393 40.2146 21.8272L42.4747 19.6217C39.4673 16.8663 35.4659 15.1356 31.0577 15V18.1262C31.0577 18.4268 30.8081 18.6704 30.5 18.6704C30.1923 18.6704 29.9423 18.4268 29.9423 18.1262V15C25.5344 15.1356 21.533 16.8662 18.5253 19.6217L20.7854 21.8272C21.0032 22.0393 21.0032 22.3844 20.7854 22.5965C20.6763 22.703 20.5339 22.7558 20.391 22.7558C20.2481 22.7558 20.1057 22.703 19.9966 22.5965L17.7365 20.391C14.9125 23.3257 13.1389 27.2301 13 31.5312H16.2036C16.5113 31.5312 16.7612 31.7748 16.7612 32.0754C16.7612 32.3761 16.5116 32.6196 16.2036 32.6196H13.0028C13.1759 37.9612 15.8791 42.8941 20.349 46C22.5722 42.6663 26.4081 40.6185 30.5002 40.6185C34.5923 40.6185 38.428 42.6667 40.6513 45.9996C45.1208 42.8941 47.8241 37.9608 47.9975 32.6192H44.7963L44.7964 32.6196ZM38.1099 25.4459L35.8266 28.6597C34.6901 30.2597 33.7557 31.9919 32.8519 33.6662C32.2636 34.7557 31.1314 35.4209 29.8787 35.4209C29.8433 35.4209 29.8084 35.4205 29.7727 35.4194C27.9894 35.3661 26.5283 33.9013 26.5162 32.155C26.5075 30.9226 27.1939 29.7986 28.3081 29.2226L28.314 29.2192L37.3791 24.6607C37.6059 24.5367 37.8896 24.5818 38.0647 24.7695C38.2389 24.9575 38.2578 25.2379 38.1098 25.4458L38.1099 25.4459Z" fill="#86BE3F"/>
</svg>
