<svg width="61" height="61" viewBox="0 0 61 61" fill="none" xmlns="http://www.w3.org/2000/svg">
<circle cx="30.5" cy="30.5" r="29" stroke="#86BE3F" stroke-width="3"/>
<path d="M38.4796 14C35.4349 14 32.9592 16.4668 32.9592 19.5C32.9592 21.8667 34.4983 23.9668 36.7065 24.7001V28.3001L20.7476 28.2999V35.3332C18.506 36.0665 17.0003 38.1666 17.0003 40.5333C16.9672 43.5668 19.4428 46 22.4875 46C25.5322 46 28.0079 43.5332 28.0079 40.5C28.0079 38.1333 26.4689 36.0332 24.2606 35.3V31.7334H40.2527V24.6666C42.4943 23.9333 44 21.8333 44 19.4666C44 16.4334 41.5241 14.0001 38.4797 14.0001L38.4796 14Z" fill="#86BE3F"/>
</svg>
