<svg width="61" height="61" viewBox="0 0 61 61" fill="none" xmlns="http://www.w3.org/2000/svg">
<circle cx="30.5" cy="30.5" r="29" stroke="#86BE3F" stroke-width="3"/>
<path d="M43.759 18.1431H16.8773C16.283 18.1431 15.7132 18.379 15.2928 18.7995C14.8727 19.2196 14.6367 19.7894 14.6367 20.3837V22.6243C14.6367 23.2187 14.8727 23.7889 15.2928 24.2089C15.7132 24.629 16.2831 24.8653 16.8773 24.8653H43.759C44.3534 24.8653 44.9232 24.629 45.3433 24.2089C45.7637 23.7888 45.9997 23.2186 45.9997 22.6243V20.3837C45.9997 19.7894 45.7637 19.2195 45.3433 18.7995C44.9231 18.379 44.3533 18.1431 43.759 18.1431V18.1431ZM40.3998 22.6244C39.9472 22.6244 39.5392 22.3519 39.366 21.9338C39.1929 21.5161 39.2888 21.0349 39.6085 20.7148C39.9286 20.3951 40.4098 20.2992 40.8279 20.4723C41.2456 20.6455 41.5184 21.0535 41.5184 21.5057C41.5184 22.1235 41.0176 22.6243 40.3998 22.6243L40.3998 22.6244Z" fill="#86BE3F"/>
<path d="M43.759 27.1066H16.8773C16.283 27.1066 15.7132 27.3426 15.2928 27.763C14.8727 28.1832 14.6367 28.753 14.6367 29.3473V31.5883C14.6367 32.1822 14.8727 32.7524 15.2928 33.1725C15.7132 33.5926 16.2831 33.8289 16.8773 33.8289H43.759C44.3541 33.8289 44.9242 33.5923 45.3447 33.1715C45.7652 32.7503 46.0007 32.1795 45.9997 31.5844V29.3472C45.9997 28.7529 45.7638 28.183 45.3433 27.763C44.9232 27.3425 44.3534 27.1066 43.7591 27.1066L43.759 27.1066ZM40.3998 31.5845C39.9472 31.5845 39.5392 31.312 39.366 30.894C39.1929 30.4762 39.2888 29.995 39.6085 29.6749C39.9286 29.3552 40.4098 29.2593 40.8279 29.4325C41.2456 29.6056 41.5184 30.0137 41.5184 30.4659C41.5184 31.0836 41.0176 31.5845 40.3998 31.5845L40.3998 31.5845Z" fill="#86BE3F"/>
<path d="M43.759 36.0657H16.8773C16.283 36.0657 15.7132 36.3016 15.2928 36.7221C14.8727 37.1422 14.6367 37.712 14.6367 38.3063V40.5473C14.6367 41.1413 14.8727 41.7115 15.2928 42.1315C15.7132 42.5516 16.2831 42.7879 16.8773 42.7879H43.759C44.3534 42.7879 44.9232 42.5516 45.3433 42.1315C45.7637 41.7114 45.9997 41.1412 45.9997 40.5473V38.3063C45.9997 37.712 45.7637 37.1421 45.3433 36.7221C44.9231 36.3016 44.3533 36.0657 43.759 36.0657V36.0657ZM40.3998 40.5473C39.9472 40.5473 39.5392 40.2745 39.366 39.8568C39.1929 39.4387 39.2888 38.9575 39.6085 38.6374C39.9286 38.3177 40.4098 38.2218 40.8279 38.395C41.2456 38.5681 41.5184 38.9761 41.5184 39.4283C41.5184 40.0465 41.0176 40.5473 40.3998 40.5473L40.3998 40.5473Z" fill="#86BE3F"/>
</svg>
