<svg width="61" height="62" viewBox="0 0 61 62" fill="none" xmlns="http://www.w3.org/2000/svg">
<circle cx="30.5" cy="31.2957" r="29" stroke="#86BE3F" stroke-width="3"/>
<path d="M47.6907 37.3411C38.0002 28.3508 22.9295 28.3508 13.2763 37.3411C12.9079 37.7095 12.9079 38.299 13.2763 38.6678L18.14 43.5315C18.4716 43.8631 19.0244 43.8998 19.3928 43.5683C25.6934 37.894 35.3108 37.894 41.6114 43.5683C41.9798 43.8998 42.5326 43.8631 42.8642 43.5315L47.7279 38.6678C48.0966 38.2991 48.0966 37.7095 47.6912 37.3411H47.6907Z" fill="#86BE3F"/>
<path d="M18.7296 29.2347L25.3251 27.7977C25.9883 27.6503 26.2095 26.8398 25.7305 26.3975L24.2197 24.8867C26.0621 23.413 28.2729 22.676 30.4836 22.676C32.6943 22.676 34.9422 23.413 36.7475 24.8867L35.2367 26.3975C34.7577 26.8765 35.0157 27.6871 35.6421 27.7977L42.2376 29.1979C42.8272 29.3085 43.343 28.7924 43.2323 28.2031L41.8322 21.6077C41.6848 20.9445 40.8742 20.7233 40.432 21.2022L38.8477 22.7866C34.0208 18.7334 26.9467 18.6967 22.1197 22.7866L20.5354 21.2389C20.0564 20.76 19.2458 21.018 19.1352 21.6444L17.735 28.2399C17.5879 28.8292 18.1405 29.3452 18.7301 29.2346L18.7296 29.2347Z" fill="#86BE3F"/>
</svg>
