<svg width="39" height="39" viewBox="0 0 39 39" fill="none" xmlns="http://www.w3.org/2000/svg">
<rect width="39" height="39" rx="19.5" fill="#86BE3F"/>
<path d="M17.9029 21.2487L16.8587 20.75L15.9771 22.9271C15.9743 22.9339 15.9717 22.9409 15.9694 22.9479C15.8574 23.2838 15.8823 23.589 16.0396 23.8071C16.176 23.9964 16.3951 24.1007 16.6568 24.1007H16.6569C16.7808 24.1007 16.9139 24.0772 17.0525 24.031C17.0596 24.0287 17.0665 24.0261 17.0733 24.0234L19.2504 23.1418L18.7518 22.0975C18.6184 21.8183 18.1821 21.382 17.9029 21.2487Z" fill="white"/>
<path d="M25.9704 14.5273L19.1152 21.3825C19.229 21.5227 19.3238 21.6646 19.3861 21.7948L21.1261 25.4384C21.3599 25.9279 21.6681 26.001 21.8309 26.001H21.8309C21.9764 26.001 22.3358 25.9377 22.5313 25.3514L25.9307 15.153C26.0069 14.9242 26.0195 14.7098 25.9704 14.5273V14.5273Z" fill="white"/>
<path d="M18.6184 20.8851L25.4739 14.0296C25.402 14.0101 25.3249 14 25.2437 14C25.1196 14 24.9865 14.0234 24.8479 14.0697L14.6496 17.469C14.11 17.649 14.0117 17.963 14.0011 18.1341C13.9905 18.3053 14.0493 18.6291 14.5625 18.8741L18.2062 20.6143C18.3363 20.6765 18.4782 20.7713 18.6184 20.8851V20.8851Z" fill="white"/>
</svg>
